<svg xmlns="http://www.w3.org/2000/svg" viewBox="0 0 106.05 94.41"><defs><style>.cls-1,.cls-2,.cls-3{fill:none;stroke:#000;stroke-width:2.4px;}.cls-2,.cls-3{stroke-linecap:round;}.cls-3{stroke-linejoin:round;}</style></defs><title>Asset 6</title><g id="Layer_2" data-name="Layer 2"><g id="healthy_food_2" data-name="healthy food 2"><path class="cls-1" d="M84.94,1.23a1.64,1.64,0,0,1,1.55,1.56c.17,3.1-.07,10.59-5.43,16C74.15,25.65,63.69,24,63.69,24S62.07,13.58,69,6.67C74.35,1.31,81.84,1.07,84.94,1.23Z"/><path class="cls-2" d="M63.52,24.23c-.84-4.92-4-13.5-15.89-16.71a2.44,2.44,0,0,0-.46-.07"/><path class="cls-1" d="M31.31,67.32a47.26,47.26,0,0,1-3.78-21.07c.59-8,4.11-16.34,11.22-20.51a25.4,25.4,0,0,1,18.47-2.65,37.76,37.76,0,0,0,8.92,1.44"/><path class="cls-1" d="M66.14,24.53a37.68,37.68,0,0,0,8.91-1.44,25.4,25.4,0,0,1,18.47,2.65c7.12,4.17,10.63,12.56,11.23,20.51.58,7.77-1.37,15.61-4.47,22.69a54.54,54.54,0,0,1-13.4,19c-2.5,2.2-5.62,4.45-9.06,4.71a12.17,12.17,0,0,1-5.63-1.17,11.67,11.67,0,0,0-12.1,0,12.23,12.23,0,0,1-5.64,1.17C51,92.42,47.89,90.17,45.39,88a48.6,48.6,0,0,1-8-9.13"/><path class="cls-2" d="M97.1,55.73c1.55-6.27-.08-15.33-3.63-20.19"/><path class="cls-1" d="M86.13,1.85A171.81,171.81,0,0,1,63.69,24"/><path class="cls-3" d="M24.51,93.21a5.56,5.56,0,0,1-4.61-2.45L1.2,62.88l9.21-6.18,14.1,21L48.16,42.44l9.22,6.18L29.11,90.76A5.54,5.54,0,0,1,24.51,93.21Z"/></g></g></svg>