<svg xmlns="http://www.w3.org/2000/svg" viewBox="0 0 125.41 102.63"><defs><style>.cls-1{fill:none;stroke:#000;stroke-linecap:round;stroke-linejoin:round;stroke-width:2.4px;}</style></defs><title>Asset 5</title><g id="Layer_2" data-name="Layer 2"><g id="fit_body_form_1" data-name="fit body form 1"><path class="cls-1" d="M35.52,1.2c5.58,11.09,10.39,30.52-5,53.86-9.42,14.26-13.11,31-2.79,46.37"/><path class="cls-1" d="M89.89,1.2c-5.58,11.09-10.39,30.52,5,53.86,9.42,14.26,13.11,31,2.79,46.37"/><path class="cls-1" d="M97.63,60c-6.16,4.56-19.41,7.71-34.77,7.71-15.62,0-29.06-3.26-35.08-7.94"/><path class="cls-1" d="M22.16,81.59c4.83-2.8,14-2.41,23.38,1.47,8.25,3.41,14.59,8.64,17.16,13.58"/><path class="cls-1" d="M103.25,81.59c-4.83-2.8-14-2.41-23.38,1.47C71.62,86.47,65.28,91.7,62.7,96.64"/><line class="cls-1" x1="62.7" y1="101.43" x2="62.7" y2="96.64"/><line class="cls-1" x1="62.7" y1="54.92" x2="62.7" y2="52.25"/><line class="cls-1" x1="1.2" y1="28.72" x2="32.5" y2="28.72"/><polyline class="cls-1" points="21.57 39.86 34.75 28.72 21.57 17.58"/><line class="cls-1" x1="124.21" y1="28.72" x2="92.91" y2="28.72"/><polyline class="cls-1" points="103.84 39.86 90.66 28.72 103.84 17.58"/></g></g></svg>