<svg xmlns="http://www.w3.org/2000/svg" viewBox="0 0 133.06 95.82"><defs><style>.cls-1{fill:none;stroke:#000;stroke-linecap:round;stroke-width:2.4px;}</style></defs><title>Asset 4</title><g id="Layer_2" data-name="Layer 2"><g id="healthy_food_1" data-name="healthy food 1"><path class="cls-1" d="M129.57,6.23c-.06-2-.41-3.15-1.07-3.77a2.72,2.72,0,0,0-1.41-.65c-1.47-.27-2.87.81-3.56,3.13a172.52,172.52,0,0,0-5,30.13c-.44,6.59.16,12.84,6.14,15.86a2,2,0,0,1,1.31,1.9c-.35,5.69-2.6,24.7-3.07,33.35-.16,2.83.63,4.75,1.81,5.86,2.67,2.53,7.32.81,7.19-4.07C131.37,70.58,129.67,10,129.57,6.23Z"/><path class="cls-1" d="M66.88,1.2a46.71,46.71,0,1,0,46.71,46.71A46.76,46.76,0,0,0,66.88,1.2Zm0,80.45a33.75,33.75,0,1,1,33.74-33.74A33.78,33.78,0,0,1,66.88,81.65Z"/><path class="cls-1" d="M47,55.76a21.34,21.34,0,0,0,39.7,0"/><path class="cls-1" d="M3.39,2.47S2,17.71,1.33,23.57,2.4,34.8,6.09,36.88A1.81,1.81,0,0,1,7,38.56s-1.7,39-2.17,47.62C4.7,89,5.49,90.93,6.67,92a4.16,4.16,0,0,0,5.76,0c1.17-1.11,2-3,1.81-5.86-.47-8.65-2.09-47.62-2.09-47.62a1.81,1.81,0,0,1,.94-1.68c3.69-2.08,5.4-7.52,4.76-13.31s-2.06-21.1-2.06-21.1"/><line class="cls-1" x1="7.37" y1="2.47" x2="6.93" y2="20.51"/><line class="cls-1" x1="11.62" y1="2.47" x2="12.06" y2="20.51"/><path class="cls-1" d="M47.28,43.21a4.55,4.55,0,0,1,9.09,0"/><path class="cls-1" d="M77.39,43.21a4.55,4.55,0,0,1,9.09,0"/></g></g></svg>