<svg xmlns="http://www.w3.org/2000/svg" width="300px" height="64.9px" viewBox="0 0 300 64.9"><defs><style>.cls-1{fill:#fff;}.cls-2{fill:#f39;}</style></defs><title>VitaSlimming</title><g id="Layer_2" data-name="Layer 2"><g id="logo_variations" data-name="logo variations"><path class="cls-1" d="M7.34,12.35l9.72,27.19,9.62-27.19H34L20,48.3H14.13L0,12.35Z"/><path class="cls-1" d="M37.87,48.3V12.35h7V48.3Z"/><path class="cls-1" d="M79.24,18.47H67.75V48.3H60.81V18.47H49.32V12.35H79.24Z"/><path class="cls-1" d="M90.38,12.35h6.18L110.23,48.3H103l-3.34-9H87.14l-3.29,9H76.66Zm8.05,22.07-5-14.12L88.3,34.42Z"/><path class="cls-1" d="M161.27,21.88A8.77,8.77,0,0,0,158,19.65a11.78,11.78,0,0,0-4.62-.85q-3.81,0-5.55,1.44a4.8,4.8,0,0,0-1.74,3.91,4.3,4.3,0,0,0,.46,2.12A4,4,0,0,0,148,27.71a10.07,10.07,0,0,0,2.49,1.05c1,.3,2.21.6,3.59.89a39.13,39.13,0,0,1,4.15,1.1,11.76,11.76,0,0,1,3.14,1.52,6.28,6.28,0,0,1,2,2.2,6.87,6.87,0,0,1,.69,3.24,7.32,7.32,0,0,1-.77,3.45,6.93,6.93,0,0,1-2.14,2.43A9.59,9.59,0,0,1,157.86,45a17.58,17.58,0,0,1-4.17.46,17.15,17.15,0,0,1-11.54-4.17L143.57,39a11.1,11.1,0,0,0,1.84,1.54,13.2,13.2,0,0,0,2.39,1.28,15.37,15.37,0,0,0,6,1.15,9.93,9.93,0,0,0,5.37-1.23A4.17,4.17,0,0,0,161.06,38a4.36,4.36,0,0,0-.54-2.25,4.79,4.79,0,0,0-1.64-1.58A11.35,11.35,0,0,0,156.16,33c-1.08-.33-2.33-.65-3.76-1s-2.84-.71-4-1.09a10.46,10.46,0,0,1-2.88-1.42,5.51,5.51,0,0,1-1.76-2,6.67,6.67,0,0,1-.59-2.94A8.07,8.07,0,0,1,144,21a7,7,0,0,1,2.13-2.6,10,10,0,0,1,3.24-1.58,14.8,14.8,0,0,1,4.13-.54,14.09,14.09,0,0,1,5.12.87,13.73,13.73,0,0,1,4.07,2.45Z"/><path class="cls-1" d="M166.57,15.68h2.76V40.47a2.49,2.49,0,0,0,.65,1.84,2.39,2.39,0,0,0,1.82.67,5.45,5.45,0,0,0,1-.12,7.59,7.59,0,0,0,1.14-.32l.48,2.22a9.1,9.1,0,0,1-1.88.53,11.49,11.49,0,0,1-1.93.2,4.1,4.1,0,0,1-3-1.07,4,4,0,0,1-1.1-3Z"/><path class="cls-1" d="M175.44,19.73V15.68h2.76v4.05Zm0,25.52V24.15h2.76v21.1Z"/><path class="cls-1" d="M213.64,45.25h-2.75V33.46A9.92,9.92,0,0,0,209.71,28a3.92,3.92,0,0,0-3.48-1.74,5.85,5.85,0,0,0-2.29.45A7.08,7.08,0,0,0,202,28a8.71,8.71,0,0,0-1.6,1.93,9.44,9.44,0,0,0-1,2.45V45.25h-2.75V33.46q0-3.77-1.14-5.47a3.89,3.89,0,0,0-3.48-1.7A6.24,6.24,0,0,0,187.68,28,9.22,9.22,0,0,0,185,32.33V45.25h-2.75V24.15h2.51v4.77a9.92,9.92,0,0,1,3.4-3.78,8.41,8.41,0,0,1,4.66-1.36,6,6,0,0,1,4.27,1.5,6.5,6.5,0,0,1,2,3.93q3-5.43,8.14-5.43a6.48,6.48,0,0,1,3,.65,5.15,5.15,0,0,1,2,1.84,8.69,8.69,0,0,1,1.1,2.88,18.69,18.69,0,0,1,.34,3.74Z"/><path class="cls-1" d="M248.84,45.25h-2.75V33.46A9.92,9.92,0,0,0,244.91,28a3.92,3.92,0,0,0-3.48-1.74,5.85,5.85,0,0,0-2.29.45,7.08,7.08,0,0,0-2,1.25,8.71,8.71,0,0,0-1.6,1.93,9.44,9.44,0,0,0-1.05,2.45V45.25h-2.75V33.46q0-3.77-1.14-5.47a3.89,3.89,0,0,0-3.48-1.7A6.24,6.24,0,0,0,222.88,28a9.22,9.22,0,0,0-2.68,4.38V45.25h-2.75V24.15H220v4.77a9.92,9.92,0,0,1,3.4-3.78A8.41,8.41,0,0,1,228,23.78a6,6,0,0,1,4.27,1.5,6.5,6.5,0,0,1,2,3.93q3-5.43,8.14-5.43a6.48,6.48,0,0,1,3,.65,5.15,5.15,0,0,1,2,1.84,8.69,8.69,0,0,1,1.1,2.88,18.69,18.69,0,0,1,.34,3.74Z"/><path class="cls-1" d="M252.65,19.73V15.68h2.75v4.05Zm0,25.52V24.15h2.75v21.1Z"/><path class="cls-1" d="M277.19,45.25h-2.75V33.46q0-3.77-1.11-5.47a3.83,3.83,0,0,0-3.43-1.7,7,7,0,0,0-2.43.45A8.09,8.09,0,0,0,265.23,28a9.44,9.44,0,0,0-1.85,1.93,7.38,7.38,0,0,0-1.17,2.41V45.25h-2.76V24.15H262v4.77a10,10,0,0,1,3.71-3.72,10.14,10.14,0,0,1,5.25-1.42,6.21,6.21,0,0,1,2.95.65,5.09,5.09,0,0,1,1.95,1.82,8.64,8.64,0,0,1,1.05,2.88,19.82,19.82,0,0,1,.32,3.76Z"/><path class="cls-1" d="M289.51,45.53a8.67,8.67,0,0,1-4-.91,10.37,10.37,0,0,1-3.12-2.41,11.15,11.15,0,0,1-2-3.44,11.51,11.51,0,0,1-.73-4,12.5,12.5,0,0,1,.71-4.19,10.84,10.84,0,0,1,2-3.51,9.84,9.84,0,0,1,3.1-2.39,8.92,8.92,0,0,1,4-.89,8.1,8.1,0,0,1,4.7,1.36,13,13,0,0,1,3.4,3.42V24.15H300V45.33a8.67,8.67,0,0,1-.83,3.87A8.23,8.23,0,0,1,296.94,52a9.4,9.4,0,0,1-3.28,1.71,14.09,14.09,0,0,1-4,.56A11.63,11.63,0,0,1,283.8,53a10.4,10.4,0,0,1-3.61-3.49l1.7-1.33a7.57,7.57,0,0,0,3.33,3,10.4,10.4,0,0,0,4.45,1,10,10,0,0,0,2.92-.42A7.11,7.11,0,0,0,295,50.41a5.91,5.91,0,0,0,1.64-2.1,7,7,0,0,0,.61-3V41.16a8.75,8.75,0,0,1-3.33,3.2A8.93,8.93,0,0,1,289.51,45.53Zm.77-2.31a6.65,6.65,0,0,0,2.39-.44,8,8,0,0,0,2.12-1.2,7.68,7.68,0,0,0,1.6-1.68,5.12,5.12,0,0,0,.86-1.9V31.48A8.4,8.4,0,0,0,296,29.37a8.28,8.28,0,0,0-1.74-1.66,8.86,8.86,0,0,0-2.09-1.09,6.53,6.53,0,0,0-2.25-.41,6.67,6.67,0,0,0-3.18.75,7.63,7.63,0,0,0-2.37,2,8.82,8.82,0,0,0-1.47,2.76,9.9,9.9,0,0,0-.51,3.12A8.68,8.68,0,0,0,283,38a8.27,8.27,0,0,0,1.68,2.69,8,8,0,0,0,2.49,1.83A7.18,7.18,0,0,0,290.28,43.22Z"/><path id="wave" class="cls-2" d="M159.83,0a52.36,52.36,0,0,0-10.11,3.17l-.51.22c-.54.24-1.07.47-1.59.73a53,53,0,0,0-9.21,5.62l-.16.12c-.43.31-.86.64-1.26,1l-.2.17c-.43.37-.85.76-1.25,1.17s-.84.88-1.22,1.35A21.46,21.46,0,0,0,130,32.45c0,.18.09.36.14.54h0a21.44,21.44,0,0,1,1,6.59A20.33,20.33,0,0,1,131,42.2a21.4,21.4,0,0,1-8,14.23,22.49,22.49,0,0,1-2.58,1.75l0,0c-.29.17-.6.33-.91.49l-.1.06q-.88.47-1.8.9A53.44,53.44,0,0,1,94.43,64.9c-1.07,0-2.13,0-3.18-.1a53.44,53.44,0,0,0,13.07-4.43,53.06,53.06,0,0,0,9.22-5.77l.41-.32.28-.22.25-.2a20.73,20.73,0,0,0,2.65-2.65c.45-.53.88-1.1,1.28-1.68a21.54,21.54,0,0,0,3-18c-.07-.27-.15-.53-.23-.78l0,0a0,0,0,0,0,0,0c-.07-.24-.15-.48-.24-.71,0,0,0,0,0,0a21.42,21.42,0,0,1-1-6.64,21,21,0,0,1,.11-2.11h0v0c0-.16,0-.3,0-.45.06-.52.15-1,.24-1.52a10.53,10.53,0,0,1,1.83-3.9c.12-.16.25-.32.38-.47l0-.05A32.48,32.48,0,0,1,134,6c.74-.33,1.48-.64,2.24-.92l.65-.23a82.8,82.8,0,0,1,8.43-2.54c.65-.16,1.31-.32,2-.45A84,84,0,0,1,159.83,0Z"/></g></g></svg>